<svg width="32" height="32" viewBox="0 0 32 32" fill="none" xmlns="http://www.w3.org/2000/svg">
  <!-- Ears -->
  <polygon points="3,14 7,2 13,12" fill="#ffa500"/>
  <polygon points="29,14 25,2 19,12" fill="#ffa500"/>
  <!-- Inner ears -->
  <polygon points="5,13 8,5 12,11" fill="#ffcf6b"/>
  <polygon points="27,13 24,5 20,11" fill="#ffcf6b"/>
  <!-- Face -->
  <circle cx="16" cy="19" r="13" fill="#ffa500"/>
  <!-- Eyes -->
  <ellipse cx="11" cy="17" rx="2.5" ry="2.8" fill="white"/>
  <ellipse cx="11.6" cy="17.2" rx="1.4" ry="1.7" fill="#1a1a1a"/>
  <circle cx="12.2" cy="16.4" r="0.55" fill="white"/>
  <ellipse cx="21" cy="17" rx="2.5" ry="2.8" fill="white"/>
  <ellipse cx="21.6" cy="17.2" rx="1.4" ry="1.7" fill="#1a1a1a"/>
  <circle cx="22.2" cy="16.4" r="0.55" fill="white"/>
  <!-- Nose -->
  <ellipse cx="16" cy="22" rx="1.6" ry="1.1" fill="white" fill-opacity="0.9"/>
  <!-- Mouth -->
  <path d="M14 23.5 Q16 25.5 18 23.5" stroke="white" stroke-width="1" stroke-linecap="round" fill="none" stroke-opacity="0.85"/>
  <!-- Whiskers -->
  <line x1="3" y1="21" x2="12" y2="22.5" stroke="white" stroke-width="0.8" stroke-linecap="round" stroke-opacity="0.7"/>
  <line x1="3" y1="24" x2="12" y2="24"   stroke="white" stroke-width="0.8" stroke-linecap="round" stroke-opacity="0.7"/>
  <line x1="20" y1="22.5" x2="29" y2="21" stroke="white" stroke-width="0.8" stroke-linecap="round" stroke-opacity="0.7"/>
  <line x1="20" y1="24"   x2="29" y2="24" stroke="white" stroke-width="0.8" stroke-linecap="round" stroke-opacity="0.7"/>
</svg>
